<svg width="24" height="24" viewBox="0 0 24 24" fill="none" xmlns="http://www.w3.org/2000/svg">
<path d="M0 10.9392L5.24996 5.68926L7.49996 7.93926L12.75 2.68926L15 4.93926L19.5 0.439263V2.56058L15 7.06058L12.75 4.81058L7.49996 10.0606L5.24996 7.81058L0 13.0605V10.9392Z" fill="#0AA0B0"/>
<path d="M20.2501 16.5L23.7804 12.9697L22.7197 11.909L21.0001 13.6287L21 7.15256e-06H19.9394L19.5001 0.439314L19.5001 13.6287L17.7804 11.909L16.7197 12.9697L20.2501 16.5Z" fill="#FF444F"/>
<path d="M7.12617 21.81C7.36617 21.81 7.53217 21.722 7.62416 21.546C7.71616 21.37 7.76216 21.122 7.76216 20.802V20.01C7.76216 19.69 7.71616 19.442 7.62416 19.266C7.53217 19.09 7.36617 19.002 7.12617 19.002C6.88616 19.002 6.72017 19.09 6.62816 19.266C6.53616 19.442 6.49016 19.69 6.49016 20.01V20.802C6.49016 21.122 6.53616 21.37 6.62816 21.546C6.72017 21.722 6.88616 21.81 7.12617 21.81Z" fill="#414652"/>
<path d="M11.2218 21.546C11.1298 21.722 10.9638 21.81 10.7238 21.81C10.4838 21.81 10.3178 21.722 10.2258 21.546C10.1338 21.37 10.0878 21.122 10.0878 20.802V20.01C10.0878 19.69 10.1338 19.442 10.2258 19.266C10.3178 19.09 10.4838 19.002 10.7238 19.002C10.9638 19.002 11.1298 19.09 11.2218 19.266C11.3138 19.442 11.3598 19.69 11.3598 20.01V20.802C11.3598 21.122 11.3138 21.37 11.2218 21.546Z" fill="#414652"/>
<path fill-rule="evenodd" clip-rule="evenodd" d="M1.5 16.5C0.671573 16.5 0 17.1716 0 18V22.5C0 23.3284 0.671573 24 1.5 24H12.75C13.5784 24 14.25 23.3284 14.25 22.5V18C14.25 17.1716 13.5784 16.5 12.75 16.5H1.5ZM3.30051 19.968C3.52451 19.968 3.68651 19.926 3.78651 19.842C3.89051 19.754 3.94251 19.646 3.94251 19.518V19.476C3.94251 19.324 3.89251 19.202 3.79251 19.11C3.69651 19.018 3.55851 18.972 3.37851 18.972C3.21051 18.972 3.05251 19.016 2.90451 19.104C2.75651 19.188 2.63051 19.31 2.52651 19.47L1.96251 18.942C2.04251 18.838 2.12851 18.744 2.22051 18.66C2.31251 18.572 2.41651 18.498 2.53251 18.438C2.64851 18.374 2.77851 18.326 2.92251 18.294C3.06651 18.258 3.22851 18.24 3.40851 18.24C3.63251 18.24 3.83451 18.266 4.01451 18.318C4.19851 18.37 4.35451 18.446 4.48251 18.546C4.61451 18.642 4.71451 18.758 4.78251 18.894C4.85451 19.03 4.89051 19.182 4.89051 19.35C4.89051 19.482 4.86851 19.602 4.82451 19.71C4.78451 19.818 4.72651 19.912 4.65051 19.992C4.57851 20.072 4.49451 20.138 4.39851 20.19C4.30251 20.238 4.20051 20.272 4.09251 20.292V20.328C4.21651 20.352 4.33051 20.392 4.43451 20.448C4.54251 20.5 4.63451 20.568 4.71051 20.652C4.79051 20.736 4.85251 20.836 4.89651 20.952C4.94051 21.064 4.96251 21.192 4.96251 21.336C4.96251 21.524 4.92451 21.694 4.84851 21.846C4.77251 21.998 4.66451 22.128 4.52451 22.236C4.38451 22.344 4.21651 22.428 4.02051 22.488C3.82451 22.544 3.60851 22.572 3.37251 22.572C3.16051 22.572 2.97251 22.55 2.80851 22.506C2.64451 22.462 2.50051 22.404 2.37651 22.332C2.25651 22.256 2.15051 22.17 2.05851 22.074C1.97051 21.978 1.89251 21.876 1.82451 21.768L2.49051 21.252C2.58251 21.424 2.69451 21.566 2.82651 21.678C2.96251 21.786 3.14451 21.84 3.37251 21.84C3.57651 21.84 3.73451 21.79 3.84651 21.69C3.96251 21.586 4.02051 21.446 4.02051 21.27V21.234C4.02051 21.062 3.95451 20.934 3.82251 20.85C3.69451 20.762 3.51651 20.718 3.28851 20.718H2.91051V19.968H3.30051ZM7.12617 22.572C6.57817 22.572 6.17216 22.382 5.90816 22.002C5.64416 21.622 5.51216 21.09 5.51216 20.406C5.51216 19.722 5.64416 19.19 5.90816 18.81C6.17216 18.43 6.57817 18.24 7.12617 18.24C7.67416 18.24 8.08016 18.43 8.34416 18.81C8.60817 19.19 8.74016 19.722 8.74016 20.406C8.74016 21.09 8.60817 21.622 8.34416 22.002C8.08016 22.382 7.67416 22.572 7.12617 22.572ZM9.50582 22.002C9.76982 22.382 10.1758 22.572 10.7238 22.572C11.2718 22.572 11.6778 22.382 11.9418 22.002C12.2058 21.622 12.3378 21.09 12.3378 20.406C12.3378 19.722 12.2058 19.19 11.9418 18.81C11.6778 18.43 11.2718 18.24 10.7238 18.24C10.1758 18.24 9.76982 18.43 9.50582 18.81C9.24182 19.19 9.10982 19.722 9.10982 20.406C9.10982 21.09 9.24182 21.622 9.50582 22.002Z" fill="#414652"/>
<path d="M3.30051 19.968C3.52451 19.968 3.68651 19.926 3.78651 19.842C3.89051 19.754 3.94251 19.646 3.94251 19.518V19.476C3.94251 19.324 3.89251 19.202 3.79251 19.11C3.69651 19.018 3.55851 18.972 3.37851 18.972C3.21051 18.972 3.05251 19.016 2.90451 19.104C2.75651 19.188 2.63051 19.31 2.52651 19.47L1.96251 18.942C2.04251 18.838 2.12851 18.744 2.22051 18.66C2.31251 18.572 2.41651 18.498 2.53251 18.438C2.64851 18.374 2.77851 18.326 2.92251 18.294C3.06651 18.258 3.22851 18.24 3.40851 18.24C3.63251 18.24 3.83451 18.266 4.01451 18.318C4.19851 18.37 4.35451 18.446 4.48251 18.546C4.61451 18.642 4.71451 18.758 4.78251 18.894C4.85451 19.03 4.89051 19.182 4.89051 19.35C4.89051 19.482 4.86851 19.602 4.82451 19.71C4.78451 19.818 4.72651 19.912 4.65051 19.992C4.57851 20.072 4.49451 20.138 4.39851 20.19C4.30251 20.238 4.20051 20.272 4.09251 20.292V20.328C4.21651 20.352 4.33051 20.392 4.43451 20.448C4.54251 20.5 4.63451 20.568 4.71051 20.652C4.79051 20.736 4.85251 20.836 4.89651 20.952C4.94051 21.064 4.96251 21.192 4.96251 21.336C4.96251 21.524 4.92451 21.694 4.84851 21.846C4.77251 21.998 4.66451 22.128 4.52451 22.236C4.38451 22.344 4.21651 22.428 4.02051 22.488C3.82451 22.544 3.60851 22.572 3.37251 22.572C3.16051 22.572 2.97251 22.55 2.80851 22.506C2.64451 22.462 2.50051 22.404 2.37651 22.332C2.25651 22.256 2.15051 22.17 2.05851 22.074C1.97051 21.978 1.89251 21.876 1.82451 21.768L2.49051 21.252C2.58251 21.424 2.69451 21.566 2.82651 21.678C2.96251 21.786 3.14451 21.84 3.37251 21.84C3.57651 21.84 3.73451 21.79 3.84651 21.69C3.96251 21.586 4.02051 21.446 4.02051 21.27V21.234C4.02051 21.062 3.95451 20.934 3.82251 20.85C3.69451 20.762 3.51651 20.718 3.28851 20.718H2.91051V19.968H3.30051Z" fill="white"/>
<path d="M7.12617 22.572C6.57817 22.572 6.17216 22.382 5.90816 22.002C5.64416 21.622 5.51216 21.09 5.51216 20.406C5.51216 19.722 5.64416 19.19 5.90816 18.81C6.17216 18.43 6.57817 18.24 7.12617 18.24C7.67416 18.24 8.08016 18.43 8.34416 18.81C8.60817 19.19 8.74016 19.722 8.74016 20.406C8.74016 21.09 8.60817 21.622 8.34416 22.002C8.08016 22.382 7.67416 22.572 7.12617 22.572ZM7.12617 21.81C7.36617 21.81 7.53217 21.722 7.62416 21.546C7.71616 21.37 7.76216 21.122 7.76216 20.802V20.01C7.76216 19.69 7.71616 19.442 7.62416 19.266C7.53217 19.09 7.36617 19.002 7.12617 19.002C6.88616 19.002 6.72017 19.09 6.62816 19.266C6.53616 19.442 6.49016 19.69 6.49016 20.01V20.802C6.49016 21.122 6.53616 21.37 6.62816 21.546C6.72017 21.722 6.88616 21.81 7.12617 21.81Z" fill="white"/>
<path d="M10.7238 22.572C10.1758 22.572 9.76982 22.382 9.50582 22.002C9.24182 21.622 9.10982 21.09 9.10982 20.406C9.10982 19.722 9.24182 19.19 9.50582 18.81C9.76982 18.43 10.1758 18.24 10.7238 18.24C11.2718 18.24 11.6778 18.43 11.9418 18.81C12.2058 19.19 12.3378 19.722 12.3378 20.406C12.3378 21.09 12.2058 21.622 11.9418 22.002C11.6778 22.382 11.2718 22.572 10.7238 22.572ZM10.7238 21.81C10.9638 21.81 11.1298 21.722 11.2218 21.546C11.3138 21.37 11.3598 21.122 11.3598 20.802V20.01C11.3598 19.69 11.3138 19.442 11.2218 19.266C11.1298 19.09 10.9638 19.002 10.7238 19.002C10.4838 19.002 10.3178 19.09 10.2258 19.266C10.1338 19.442 10.0878 19.69 10.0878 20.01V20.802C10.0878 21.122 10.1338 21.37 10.2258 21.546C10.3178 21.722 10.4838 21.81 10.7238 21.81Z" fill="white"/>
</svg>
