<svg width="24" height="24" viewBox="0 0 24 24" fill="none" xmlns="http://www.w3.org/2000/svg">
<path d="M0 4.5C0 3.67157 0.671573 3 1.5 3H16.5C17.3284 3 18 3.67157 18 4.5V13.5C18 14.3284 17.3284 15 16.5 15H1.5C0.671573 15 0 14.3284 0 13.5V4.5Z" fill="#0D47A1"/>
<path d="M0 4.5C0 3.67157 0.671573 3 1.5 3H2.70416L7.5 6.19723V3.00001H10.5V6.19723L15.2958 3H16.5C17.3284 3 18 3.67157 18 4.5L18 4.80278L13.9542 7.50001H18V10.5H13.9542L18 13.1972L18 13.5C18 14.3284 17.3284 15 16.5 15H15.2958L10.5 11.8028V15H7.5V11.8028L2.70417 15H1.5C0.671573 15 0 14.3284 0 13.5L3.8445e-06 13.1972L4.04584 10.5H0L3.8445e-06 7.50001H4.04584L3.8445e-06 4.80278L0 4.5Z" fill="white"/>
<path d="M8.06895 3V8.04433H0V9.93597H8.06895V15H9.93105V9.93597H18V8.04433H9.93105V3H8.06895Z" fill="#F44336"/>
<path d="M17.0731 3.11337L10.5517 7.41378H11.6918L17.6213 3.50364C17.4716 3.33527 17.2845 3.20084 17.0731 3.11337Z" fill="#F44336"/>
<path d="M17.7894 14.2669L12.1777 10.5665H11.0377L17.3553 14.7324C17.531 14.6102 17.6795 14.4514 17.7894 14.2669Z" fill="#F44336"/>
<path d="M0.89827 14.8744L7.4312 10.5665H6.29114L0.361496 14.4767C0.507317 14.6465 0.690491 14.7833 0.89827 14.8744Z" fill="#F44336"/>
<path d="M0.181984 3.78326L5.68755 7.41378H6.82759L0.594887 3.30374C0.425537 3.43206 0.284294 3.59553 0.181984 3.78326Z" fill="#F44336"/>
<path fill-rule="evenodd" clip-rule="evenodd" d="M16.5 3.75H1.5C1.08579 3.75 0.75 4.08579 0.75 4.5V13.5C0.75 13.9142 1.08579 14.25 1.5 14.25H16.5C16.9142 14.25 17.25 13.9142 17.25 13.5V4.5C17.25 4.08579 16.9142 3.75 16.5 3.75ZM1.5 3C0.671573 3 0 3.67157 0 4.5V13.5C0 14.3284 0.671573 15 1.5 15H16.5C17.3284 15 18 14.3284 18 13.5V4.5C18 3.67157 17.3284 3 16.5 3H1.5Z" fill="black" fill-opacity="0.08"/>
<path d="M14.069 13.4236H24V14.0542H13.4483V9.00985H14.069V13.4236Z" fill="white"/>
<path d="M11.5862 9.00985H10.9655V13.4236H6V14.0542H11.5862V9.00985Z" fill="white"/>
<path d="M6 15.9458V16.5764H10.9655V20.9901H11.5862V15.9458H6Z" fill="white"/>
<path d="M13.4483 20.9901H14.069V16.5764H24V15.9458H13.4483V20.9901Z" fill="white"/>
<path d="M22.5 9C23.3285 9 24 9.67157 24 10.5V13.4236H14.069V9.00985L22.5 9Z" fill="#F44336"/>
<path d="M10.9655 13.4236V9.00985L7.5 9C6.67154 9 6 9.67157 6 10.5V13.4236H10.9655Z" fill="#F44336"/>
<path d="M6 19.5V16.5764H10.9655V20.9901L7.5 21C6.67154 21 6 20.3284 6 19.5Z" fill="#F44336"/>
<path d="M24 19.5C24 20.3284 23.3285 21 22.5 21L14.069 20.9901V16.5764H24V19.5Z" fill="#F44336"/>
<path d="M24 14.0542H13.4483V9.00985H11.5862V14.0542H6V15.9458H11.5862V20.9901H13.4483V15.9458H24V14.0542Z" fill="#0D47A1"/>
<path fill-rule="evenodd" clip-rule="evenodd" d="M22.5 9.75H7.5C7.08579 9.75 6.75 10.0858 6.75 10.5V19.5C6.75 19.9142 7.08579 20.25 7.5 20.25H22.5C22.9142 20.25 23.25 19.9142 23.25 19.5V10.5C23.25 10.0858 22.9142 9.75 22.5 9.75ZM7.5 9C6.67154 9 6 9.67157 6 10.5V19.5C6 20.3284 6.67154 21 7.5 21H22.5C23.3285 21 24 20.3284 24 19.5V10.5C24 9.67157 23.3285 9 22.5 9H7.5Z" fill="black" fill-opacity="0.08"/>
</svg>
