<svg width="24" height="24" viewBox="0 0 24 24" fill="none" xmlns="http://www.w3.org/2000/svg">
<path d="M7.12617 5.31001C7.36617 5.31001 7.53217 5.22201 7.62416 5.04601C7.71616 4.87001 7.76216 4.62201 7.76216 4.30201V3.51001C7.76216 3.19001 7.71616 2.94201 7.62416 2.76601C7.53217 2.59001 7.36617 2.50201 7.12617 2.50201C6.88616 2.50201 6.72017 2.59001 6.62816 2.76601C6.53616 2.94201 6.49016 3.19001 6.49016 3.51001V4.30201C6.49016 4.62201 6.53616 4.87001 6.62816 5.04601C6.72017 5.22201 6.88616 5.31001 7.12617 5.31001Z" fill="#414652"/>
<path d="M11.2218 5.04601C11.1298 5.22201 10.9638 5.31001 10.7238 5.31001C10.4838 5.31001 10.3178 5.22201 10.2258 5.04601C10.1338 4.87001 10.0878 4.62201 10.0878 4.30201V3.51001C10.0878 3.19001 10.1338 2.94201 10.2258 2.76601C10.3178 2.59001 10.4838 2.50201 10.7238 2.50201C10.9638 2.50201 11.1298 2.59001 11.2218 2.76601C11.3138 2.94201 11.3598 3.19001 11.3598 3.51001V4.30201C11.3598 4.62201 11.3138 4.87001 11.2218 5.04601Z" fill="#414652"/>
<path fill-rule="evenodd" clip-rule="evenodd" d="M1.5 0C0.671573 0 0 0.671573 0 1.5V6C0 6.82843 0.671573 7.5 1.5 7.5H12.75C13.5784 7.5 14.25 6.82843 14.25 6V1.5C14.25 0.671573 13.5784 0 12.75 0H1.5ZM3.30051 3.46801C3.52451 3.46801 3.68651 3.42601 3.78651 3.34201C3.89051 3.25401 3.94251 3.14601 3.94251 3.01801V2.97601C3.94251 2.82401 3.89251 2.70201 3.79251 2.61001C3.69651 2.51801 3.55851 2.47201 3.37851 2.47201C3.21051 2.47201 3.05251 2.51601 2.90451 2.60401C2.75651 2.68801 2.63051 2.81001 2.52651 2.97001L1.96251 2.44201C2.04251 2.33801 2.12851 2.24401 2.22051 2.16001C2.31251 2.07201 2.41651 1.99801 2.53251 1.93801C2.64851 1.87401 2.77851 1.82601 2.92251 1.79401C3.06651 1.75801 3.22851 1.74001 3.40851 1.74001C3.63251 1.74001 3.83451 1.76601 4.01451 1.81801C4.19851 1.87001 4.35451 1.94601 4.48251 2.04601C4.61451 2.14201 4.71451 2.25801 4.78251 2.39401C4.85451 2.53001 4.89051 2.68201 4.89051 2.85001C4.89051 2.98201 4.86851 3.10201 4.82451 3.21001C4.78451 3.31801 4.72651 3.41201 4.65051 3.49201C4.57851 3.57201 4.49451 3.63801 4.39851 3.69001C4.30251 3.73801 4.20051 3.77201 4.09251 3.79201V3.82801C4.21651 3.85201 4.33051 3.89201 4.43451 3.94801C4.54251 4.00001 4.63451 4.06801 4.71051 4.15201C4.79051 4.23601 4.85251 4.33601 4.89651 4.45201C4.94051 4.56401 4.96251 4.69201 4.96251 4.83601C4.96251 5.02401 4.92451 5.19401 4.84851 5.34601C4.77251 5.49801 4.66451 5.62801 4.52451 5.73601C4.38451 5.84401 4.21651 5.92801 4.02051 5.98801C3.82451 6.04401 3.60851 6.07201 3.37251 6.07201C3.16051 6.07201 2.97251 6.05001 2.80851 6.00601C2.64451 5.96201 2.50051 5.90401 2.37651 5.83201C2.25651 5.75601 2.15051 5.67001 2.05851 5.57401C1.97051 5.47801 1.89251 5.37601 1.82451 5.26801L2.49051 4.75201C2.58251 4.92401 2.69451 5.06601 2.82651 5.17801C2.96251 5.28601 3.14451 5.34001 3.37251 5.34001C3.57651 5.34001 3.73451 5.29001 3.84651 5.19001C3.96251 5.08601 4.02051 4.94601 4.02051 4.77001V4.73401C4.02051 4.56201 3.95451 4.43401 3.82251 4.35001C3.69451 4.26201 3.51651 4.21801 3.28851 4.21801H2.91051V3.46801H3.30051ZM7.12617 6.07201C6.57817 6.07201 6.17216 5.88201 5.90816 5.50201C5.64416 5.12201 5.51216 4.59001 5.51216 3.90601C5.51216 3.22201 5.64416 2.69001 5.90816 2.31001C6.17216 1.93001 6.57817 1.74001 7.12617 1.74001C7.67416 1.74001 8.08016 1.93001 8.34416 2.31001C8.60817 2.69001 8.74016 3.22201 8.74016 3.90601C8.74016 4.59001 8.60817 5.12201 8.34416 5.50201C8.08016 5.88201 7.67416 6.07201 7.12617 6.07201ZM9.50582 5.50201C9.76982 5.88201 10.1758 6.07201 10.7238 6.07201C11.2718 6.07201 11.6778 5.88201 11.9418 5.50201C12.2058 5.12201 12.3378 4.59001 12.3378 3.90601C12.3378 3.22201 12.2058 2.69001 11.9418 2.31001C11.6778 1.93001 11.2718 1.74001 10.7238 1.74001C10.1758 1.74001 9.76982 1.93001 9.50582 2.31001C9.24182 2.69001 9.10982 3.22201 9.10982 3.90601C9.10982 4.59001 9.24182 5.12201 9.50582 5.50201Z" fill="#414652"/>
<path d="M3.30051 3.46801C3.52451 3.46801 3.68651 3.42601 3.78651 3.34201C3.89051 3.25401 3.94251 3.14601 3.94251 3.01801V2.97601C3.94251 2.82401 3.89251 2.70201 3.79251 2.61001C3.69651 2.51801 3.55851 2.47201 3.37851 2.47201C3.21051 2.47201 3.05251 2.51601 2.90451 2.60401C2.75651 2.68801 2.63051 2.81001 2.52651 2.97001L1.96251 2.44201C2.04251 2.33801 2.12851 2.24401 2.22051 2.16001C2.31251 2.07201 2.41651 1.99801 2.53251 1.93801C2.64851 1.87401 2.77851 1.82601 2.92251 1.79401C3.06651 1.75801 3.22851 1.74001 3.40851 1.74001C3.63251 1.74001 3.83451 1.76601 4.01451 1.81801C4.19851 1.87001 4.35451 1.94601 4.48251 2.04601C4.61451 2.14201 4.71451 2.25801 4.78251 2.39401C4.85451 2.53001 4.89051 2.68201 4.89051 2.85001C4.89051 2.98201 4.86851 3.10201 4.82451 3.21001C4.78451 3.31801 4.72651 3.41201 4.65051 3.49201C4.57851 3.57201 4.49451 3.63801 4.39851 3.69001C4.30251 3.73801 4.20051 3.77201 4.09251 3.79201V3.82801C4.21651 3.85201 4.33051 3.89201 4.43451 3.94801C4.54251 4.00001 4.63451 4.06801 4.71051 4.15201C4.79051 4.23601 4.85251 4.33601 4.89651 4.45201C4.94051 4.56401 4.96251 4.69201 4.96251 4.83601C4.96251 5.02401 4.92451 5.19401 4.84851 5.34601C4.77251 5.49801 4.66451 5.62801 4.52451 5.73601C4.38451 5.84401 4.21651 5.92801 4.02051 5.98801C3.82451 6.04401 3.60851 6.07201 3.37251 6.07201C3.16051 6.07201 2.97251 6.05001 2.80851 6.00601C2.64451 5.96201 2.50051 5.90401 2.37651 5.83201C2.25651 5.75601 2.15051 5.67001 2.05851 5.57401C1.97051 5.47801 1.89251 5.37601 1.82451 5.26801L2.49051 4.75201C2.58251 4.92401 2.69451 5.06601 2.82651 5.17801C2.96251 5.28601 3.14451 5.34001 3.37251 5.34001C3.57651 5.34001 3.73451 5.29001 3.84651 5.19001C3.96251 5.08601 4.02051 4.94601 4.02051 4.77001V4.73401C4.02051 4.56201 3.95451 4.43401 3.82251 4.35001C3.69451 4.26201 3.51651 4.21801 3.28851 4.21801H2.91051V3.46801H3.30051Z" fill="white"/>
<path d="M7.12617 6.07201C6.57817 6.07201 6.17216 5.88201 5.90816 5.50201C5.64416 5.12201 5.51216 4.59001 5.51216 3.90601C5.51216 3.22201 5.64416 2.69001 5.90816 2.31001C6.17216 1.93001 6.57817 1.74001 7.12617 1.74001C7.67416 1.74001 8.08016 1.93001 8.34416 2.31001C8.60817 2.69001 8.74016 3.22201 8.74016 3.90601C8.74016 4.59001 8.60817 5.12201 8.34416 5.50201C8.08016 5.88201 7.67416 6.07201 7.12617 6.07201ZM7.12617 5.31001C7.36617 5.31001 7.53217 5.22201 7.62416 5.04601C7.71616 4.87001 7.76216 4.62201 7.76216 4.30201V3.51001C7.76216 3.19001 7.71616 2.94201 7.62416 2.76601C7.53217 2.59001 7.36617 2.50201 7.12617 2.50201C6.88616 2.50201 6.72017 2.59001 6.62816 2.76601C6.53616 2.94201 6.49016 3.19001 6.49016 3.51001V4.30201C6.49016 4.62201 6.53616 4.87001 6.62816 5.04601C6.72017 5.22201 6.88616 5.31001 7.12617 5.31001Z" fill="white"/>
<path d="M10.7238 6.07201C10.1758 6.07201 9.76982 5.88201 9.50582 5.50201C9.24182 5.12201 9.10982 4.59001 9.10982 3.90601C9.10982 3.22201 9.24182 2.69001 9.50582 2.31001C9.76982 1.93001 10.1758 1.74001 10.7238 1.74001C11.2718 1.74001 11.6778 1.93001 11.9418 2.31001C12.2058 2.69001 12.3378 3.22201 12.3378 3.90601C12.3378 4.59001 12.2058 5.12201 11.9418 5.50201C11.6778 5.88201 11.2718 6.07201 10.7238 6.07201ZM10.7238 5.31001C10.9638 5.31001 11.1298 5.22201 11.2218 5.04601C11.3138 4.87001 11.3598 4.62201 11.3598 4.30201V3.51001C11.3598 3.19001 11.3138 2.94201 11.2218 2.76601C11.1298 2.59001 10.9638 2.50201 10.7238 2.50201C10.4838 2.50201 10.3178 2.59001 10.2258 2.76601C10.1338 2.94201 10.0878 3.19001 10.0878 3.51001V4.30201C10.0878 4.62201 10.1338 4.87001 10.2258 5.04601C10.3178 5.22201 10.4838 5.31001 10.7238 5.31001Z" fill="white"/>
<path d="M0 13.0608L5.24996 18.3107L7.49996 16.0607L12.75 21.3107L15 19.0607L19.5 23.5607V21.4394L15 16.9394L12.75 19.1894L7.49996 13.9394L5.24996 16.1894L0 10.9395V13.0608Z" fill="#FF444F"/>
<path d="M20.2501 7.5L23.7804 11.0303L22.7197 12.091L21.0001 10.3713L21 24H19.9394L19.5001 23.5607L19.5001 10.3713L17.7804 12.091L16.7197 11.0303L20.2501 7.5Z" fill="#0AA0B0"/>
</svg>
