<svg width="24" height="24" viewBox="0 0 24 24" fill="none" xmlns="http://www.w3.org/2000/svg">
<path d="M24 22.5H0V24H24V22.5Z" fill="#0AA0B0"/>
<path d="M1.875 13.95C1.95 13.95 2.025 13.95 2.1 13.95L3.45 16.35C3.225 16.65 3.15 17.025 3.15 17.4C3.15 18.45 3.975 19.275 5.025 19.275C6.075 19.275 6.9 18.45 6.9 17.4C6.9 17.025 6.825 16.725 6.6 16.425L8.175 13.95C8.25 13.95 8.4 13.95 8.475 13.95C9.525 13.95 10.35 13.125 10.35 12.075C10.35 11.7 10.275 11.325 10.05 11.1L11.625 8.7C11.7 8.7 11.85 8.7 11.925 8.7C12 8.7 12.15 8.7 12.225 8.7L13.8 11.1C13.575 11.4 13.5 11.775 13.5 12.075C13.5 13.125 14.325 13.95 15.375 13.95C16.425 13.95 17.25 13.125 17.25 12.075C17.25 11.7 17.175 11.325 16.95 11.1L18.525 8.7C18.6 8.7 18.75 8.7 18.825 8.7C19.875 8.7 20.7 7.875 20.7 6.825C20.7 6.45 20.55 6.075 20.4 5.775L21.9 3.75C21.975 3.75 22.05 3.75 22.125 3.75C23.175 3.75 24 2.925 24 1.875C24 0.825 23.175 0 22.125 0C21.075 0 20.25 0.825 20.25 1.875C20.25 2.25 20.4 2.625 20.625 2.925L19.35 4.95C19.275 4.95 19.2 4.95 19.05 4.95C18 4.95 17.175 5.775 17.175 6.825C17.175 7.2 17.25 7.575 17.475 7.8L15.9 10.2C15.825 10.2 15.675 10.2 15.6 10.2C15.525 10.2 15.375 10.2 15.3 10.2L13.725 7.8C13.95 7.5 14.025 7.125 14.025 6.825C14.025 5.775 13.2 4.95 12.15 4.95C11.1 4.95 10.275 5.775 10.275 6.825C10.275 7.2 10.35 7.575 10.575 7.8L9 10.2C8.925 10.2 8.775 10.2 8.7 10.2C7.65 10.2 6.825 11.025 6.825 12.075C6.825 12.45 6.975 12.825 7.125 13.125L5.55 15.525C5.4 15.525 5.325 15.45 5.175 15.45C5.1 15.45 4.95 15.45 4.875 15.45L3.525 13.125C3.6 12.9 3.75 12.525 3.75 12.075C3.75 11.025 2.925 10.2 1.875 10.2C0.825 10.2 0 11.025 0 12.075C0 13.125 0.825 13.95 1.875 13.95Z" fill="#0AA0B0"/>
<path d="M0 1.5C0 0.671573 0.671573 0 1.5 0H12.75C13.5784 0 14.25 0.671573 14.25 1.5V6C14.25 6.82843 13.5784 7.5 12.75 7.5H1.5C0.671573 7.5 0 6.82843 0 6V1.5Z" fill="#414652"/>
<path d="M5.03452 6H2.07052V5.178L3.36052 4.074C3.47652 3.974 3.57452 3.884 3.65452 3.804C3.73452 3.72 3.79852 3.64 3.84652 3.564C3.89852 3.484 3.93452 3.406 3.95452 3.33C3.97852 3.254 3.99052 3.172 3.99052 3.084V3C3.99052 2.92 3.97452 2.85 3.94252 2.79C3.91052 2.73 3.86852 2.68 3.81652 2.64C3.76452 2.6 3.70452 2.57 3.63652 2.55C3.57252 2.53 3.50652 2.52 3.43852 2.52C3.33852 2.52 3.25052 2.536 3.17452 2.568C3.10252 2.6 3.03852 2.644 2.98252 2.7C2.93052 2.752 2.88652 2.814 2.85052 2.886C2.81452 2.954 2.78652 3.028 2.76652 3.108L1.98052 2.808C2.02852 2.664 2.09452 2.528 2.17852 2.4C2.26252 2.268 2.36652 2.154 2.49052 2.058C2.61852 1.958 2.76852 1.88 2.94052 1.824C3.11252 1.768 3.30652 1.74 3.52252 1.74C3.75052 1.74 3.95252 1.772 4.12852 1.836C4.30452 1.9 4.45252 1.988 4.57252 2.1C4.69652 2.212 4.79052 2.346 4.85452 2.502C4.91852 2.654 4.95052 2.82 4.95052 3C4.95052 3.18 4.92052 3.344 4.86052 3.492C4.80052 3.64 4.71852 3.78 4.61452 3.912C4.51452 4.04 4.39652 4.162 4.26052 4.278C4.12452 4.394 3.98252 4.512 3.83452 4.632L3.05452 5.244H5.03452V6Z" fill="white"/>
<path d="M7.12617 6.072C6.57817 6.072 6.17217 5.882 5.90817 5.502C5.64417 5.122 5.51217 4.59 5.51217 3.906C5.51217 3.222 5.64417 2.69 5.90817 2.31C6.17217 1.93 6.57817 1.74 7.12617 1.74C7.67417 1.74 8.08017 1.93 8.34417 2.31C8.60817 2.69 8.74017 3.222 8.74017 3.906C8.74017 4.59 8.60817 5.122 8.34417 5.502C8.08017 5.882 7.67417 6.072 7.12617 6.072ZM7.12617 5.31C7.36617 5.31 7.53217 5.222 7.62417 5.046C7.71617 4.87 7.76217 4.622 7.76217 4.302V3.51C7.76217 3.19 7.71617 2.942 7.62417 2.766C7.53217 2.59 7.36617 2.502 7.12617 2.502C6.88617 2.502 6.72017 2.59 6.62817 2.766C6.53617 2.942 6.49017 3.19 6.49017 3.51V4.302C6.49017 4.622 6.53617 4.87 6.62817 5.046C6.72017 5.222 6.88617 5.31 7.12617 5.31Z" fill="white"/>
<path d="M10.7238 6.072C10.1758 6.072 9.76983 5.882 9.50583 5.502C9.24183 5.122 9.10983 4.59 9.10983 3.906C9.10983 3.222 9.24183 2.69 9.50583 2.31C9.76983 1.93 10.1758 1.74 10.7238 1.74C11.2718 1.74 11.6778 1.93 11.9418 2.31C12.2058 2.69 12.3378 3.222 12.3378 3.906C12.3378 4.59 12.2058 5.122 11.9418 5.502C11.6778 5.882 11.2718 6.072 10.7238 6.072ZM10.7238 5.31C10.9638 5.31 11.1298 5.222 11.2218 5.046C11.3138 4.87 11.3598 4.622 11.3598 4.302V3.51C11.3598 3.19 11.3138 2.942 11.2218 2.766C11.1298 2.59 10.9638 2.502 10.7238 2.502C10.4838 2.502 10.3178 2.59 10.2258 2.766C10.1338 2.942 10.0878 3.19 10.0878 3.51V4.302C10.0878 4.622 10.1338 4.87 10.2258 5.046C10.3178 5.222 10.4838 5.31 10.7238 5.31Z" fill="white"/>
</svg>
