<?xml version="1.0" encoding="UTF-8"?>
<svg width="64px" height="64px" viewBox="0 0 64 64" version="1.1" xmlns="http://www.w3.org/2000/svg" xmlns:xlink="http://www.w3.org/1999/xlink">
    <!-- Generator: Sketch 51.2 (57519) - http://www.bohemiancoding.com/sketch -->
    <title>AS51</title>
    <desc>Created with Sketch.</desc>
    <defs></defs>
    <g id="AS51" stroke="none" stroke-width="1" fill="none" fill-rule="evenodd">
        <g id="AUD_australia" fill-rule="nonzero">
            <path d="M64,32 C64,49.673 49.673,64 32,64 C14.327,64 0,49.673 0,32 C0,32.0075 32,0.003625 32,0 C49.673,0 64,14.327 64,32 Z" id="Shape" fill="#1836CE"></path>
            <g id="Group">
                <path d="M32.005375,0 C32.001875,0 31.998125,0.00025 31.994625,0.00025 L32.005375,0 Z" id="Shape" fill="#F0F0F0"></path>
                <path d="M31.914375,32.085625 L32.085625,32.085625 C32.085625,32.027625 32.085625,31.972125 32.085625,31.914375 C32.028625,31.971625 31.971625,32.028625 31.914375,32.085625 Z" id="Shape" fill="#F0F0F0"></path>
                <path d="M32,16.69575 C32,11.065125 32,7.3755 32.000125,0.000125 L31.994625,0.000125 C14.324,0.003 0,14.328625 0,32 L16.695625,32 L16.695625,22.5985 L26.097125,32 L31.9145,32 C31.943125,31.9715 31.971625,31.943 32.000125,31.914375 C32.000125,29.7585 32.000125,27.834875 32.000125,26.097375 L22.5985,16.69575 L32,16.69575 Z" id="Shape" fill="#FFFFFF"></path>
            </g>
            <g id="Group" transform="translate(4.125000, 4.125000)" fill="#D80027">
                <path d="M12.064375,0.048875 C7.0595,2.89875 2.89875,7.0595 0.048875,12.064375 L0.048875,27.875 L8.39675,27.875 L8.39675,8.396875 L8.39675,8.39675 L27.875,8.39675 C27.875,5.763875 27.875,3.255625 27.875,0.048875 L12.064375,0.048875 Z" id="Shape"></path>
                <path d="M27.875,23.939875 L16.505875,12.570875 L12.57075,12.5708194 C12.57075,12.5708194 12.57075,12.5708194 12.57075,12.5708194 L27.875,27.875 C27.875,27.875 27.875,25.161875 27.875,23.939875 Z" id="Shape"></path>
            </g>
            <g id="Group" transform="translate(12.125000, 13.875000)" fill="#F0F0F0">
                <polygon id="Shape" points="7.174375 23.69025 8.930625 27.3625 12.8965 26.445875 11.1205 30.108625 14.30975 32.63775 10.338875 33.53275 10.35 37.60325 7.174375 35.056625 3.998875 37.60325 4.01 33.53275 0.039 32.63775 3.228375 30.108625 1.452125 26.445875 5.41825 27.3625"></polygon>
                <polygon id="Shape" points="35.7855 30.64675 36.663625 32.482875 38.646625 32.0245 37.7585 33.855875 39.35325 35.1205 37.36775 35.568 37.37325 37.60325 35.7855 36.329875 34.19775 37.60325 34.20325 35.568 32.217875 35.1205 33.8125 33.855875 32.9245 32.0245 34.907375 32.482875"></polygon>
                <polygon id="Shape" points="27.616625 11.1685 28.494625 13.00475 30.477625 12.54625 29.589625 14.377625 31.18425 15.64225 29.198875 16.08975 29.20425 18.125 27.616625 16.851625 26.028875 18.125 26.03425 16.08975 24.048875 15.64225 25.6435 14.377625 24.7555 12.54625 26.7385 13.00475"></polygon>
                <polygon id="Shape" points="35.7855 0.038 36.663625 1.87425 38.646625 1.415875 37.758625 3.24725 39.353125 4.51175 37.36775 4.959375 37.37325 6.994625 35.7855 5.72125 34.19775 6.994625 34.20325 4.959375 32.217875 4.51175 33.812375 3.24725 32.9245 1.415875 34.907375 1.87425"></polygon>
                <polygon id="Shape" points="42.921 8.385875 43.799 10.222125 45.782 9.763625 44.894 11.595 46.488625 12.859625 44.503125 13.30725 44.508625 15.342375 42.921 14.069125 41.33325 15.342375 41.338625 13.30725 39.35325 12.859625 40.947875 11.595 40.059875 9.763625 42.04275 10.222125"></polygon>
                <polygon id="Shape" points="37.81875 18.125 38.509375 20.25075 40.744625 20.25075 38.93625 21.564625 39.627125 23.69025 37.81875 22.3765 36.0105 23.69025 36.701125 21.564625 34.892875 20.25075 37.128 20.25075"></polygon>
            </g>
        </g>
    </g>
</svg>