<?xml version="1.0" encoding="UTF-8"?>
<svg width="64px" height="64px" viewBox="0 0 64 64" version="1.1" xmlns="http://www.w3.org/2000/svg" xmlns:xlink="http://www.w3.org/1999/xlink">
    <!-- Generator: Sketch 51.2 (57519) - http://www.bohemiancoding.com/sketch -->
    <title>UKX</title>
    <desc>Created with Sketch.</desc>
    <defs></defs>
    <g id="UKX" stroke="none" stroke-width="1" fill="none" fill-rule="evenodd">
        <g id="GBP_united-kingdom" fill-rule="nonzero">
            <circle id="Oval" fill="#FFFFFF" cx="32" cy="32" r="32"></circle>
            <g id="Group" transform="translate(1.000000, 1.000000)">
                <path d="M5.615,11.51775 C3.101375,14.788125 1.206,18.5575 0.102375,22.652375 L16.749625,22.652375 L5.615,11.51775 Z" id="Shape" fill="#1836CE"></path>
                <path d="M61.897625,22.652375 C60.794,18.557625 58.8985,14.78825 56.385,11.517875 L45.250625,22.652375 L61.897625,22.652375 Z" id="Shape" fill="#0052B4"></path>
                <path d="M0.102375,39.348 C1.206125,43.44275 3.1015,47.212125 5.615,50.482375 L16.74925,39.348 L0.102375,39.348 Z" id="Shape" fill="#1836CE"></path>
                <path d="M50.48225,5.615125 C47.211875,3.1015 43.442625,1.206125 39.34775,0.102375 L39.34775,16.7495 L50.48225,5.615125 Z" id="Shape" fill="#1836CE"></path>
                <path d="M11.51775,56.384875 C14.788125,58.8985 18.5575,60.793875 22.65225,61.897625 L22.65225,45.250625 L11.51775,56.384875 Z" id="Shape" fill="#1836CE"></path>
                <path d="M22.652125,0.102375 C18.557375,1.206125 14.788,3.1015 11.51775,5.615 L22.652125,16.749375 L22.652125,0.102375 Z" id="Shape" fill="#1836CE"></path>
                <path d="M39.347875,61.897625 C43.442625,60.793875 47.212,58.8985 50.48225,56.385 L39.347875,45.250625 L39.347875,61.897625 Z" id="Shape" fill="#1836CE"></path>
                <path d="M45.250625,39.348 L56.385,50.4825 C58.8985,47.21225 60.794,43.44275 61.897625,39.348 L45.250625,39.348 Z" id="Shape" fill="#1836CE"></path>
            </g>
            <g id="Group" fill="#D80027">
                <path d="M63.729125,27.826125 L36.174125,27.826125 L36.174,27.826125 L36.174,0.270875 C34.807625,0.093 33.414625,0 32,0 C30.585125,0 29.192375,0.093 27.826125,0.270875 L27.826125,27.825875 L27.826125,27.826 L0.270875,27.826 C0.093,29.192375 0,30.585375 0,32 C0,33.414875 0.093,34.807625 0.270875,36.173875 L27.825875,36.173875 L27.826,36.173875 L27.826,63.729125 C29.192375,63.907 30.585125,64 32,64 C33.414625,64 34.807625,63.907125 36.173875,63.729125 L36.173875,36.174125 L36.173875,36.174 L63.729125,36.174 C63.907,34.807625 64,33.414875 64,32 C64,30.585375 63.907,29.192375 63.729125,27.826125 Z" id="Shape"></path>
                <path d="M40.347875,40.347875 L54.627375,54.6275 C55.284125,53.971 55.910625,53.284625 56.508375,52.573125 L44.283125,40.347875 L40.347875,40.347875 Z" id="Shape"></path>
                <path d="M23.652125,40.348 L23.651875,40.348 L9.3725,54.627375 C10.029,55.284125 10.715375,55.910625 11.426875,56.508375 L23.652125,44.282875 L23.652125,40.348 Z" id="Shape"></path>
                <path d="M23.652125,23.652375 L23.652125,23.652125 L9.372625,9.3725 C8.715875,10.029 8.089375,10.715375 7.491625,11.426875 L19.717,23.65225 L23.652125,23.652375 Z" id="Shape"></path>
                <path d="M40.347875,23.652375 L54.6275,9.372625 C53.971,8.715875 53.284625,8.089375 52.573125,7.49175 L40.347875,19.717125 L40.347875,23.652375 Z" id="Shape"></path>
            </g>
        </g>
    </g>
</svg>